<svg xmlns="http://www.w3.org/2000/svg" viewBox="0 0 512 512" fill="#ffffff">
	<title>Wallet_Approved</title>
	<g id="Wallet_Approved" data-name="Wallet Approved">
		<g id="Wallet_Approved-2" data-name="Wallet Approved">
			<path d="M397.6563,230.1819h-6.364V217.44a43.4912,43.4912,0,0,0-33.8153-42.3406l-.04-25.09a33.5129,33.5129,0,0,0-33.4827-33.4656h-1.5723L145.1292,173.9893H141.808A43.492,43.492,0,0,0,98.37,217.44v68.9435a71.66,71.66,0,0,1,19.95-10.7693V217.44a23.4963,23.4963,0,0,1,23.4878-23.501H347.8516a23.4877,23.4877,0,0,1,23.4878,23.501v12.7415H335.0532a24.3456,24.3456,0,0,0-24.319,24.3152v46.6963a24.3478,24.3478,0,0,0,24.319,24.3228h36.2891v12.7414a23.49,23.49,0,0,1-23.4877,23.5011H211.5333a71.5442,71.5442,0,0,1-8.6783,19.95h145a43.49,43.49,0,0,0,43.4377-43.4512V325.5162h6.364a24.3472,24.3472,0,0,0,24.3191-24.3228V254.4971A24.345,24.345,0,0,0,397.6563,230.1819Zm4.3691,71.0115a4.3753,4.3753,0,0,1-4.3691,4.3728H335.0532a4.3752,4.3752,0,0,1-4.369-4.3728V254.4971a4.3731,4.3731,0,0,1,4.369-4.3653h62.6031a4.3707,4.3707,0,0,1,4.3691,4.3653Z"/>
			<path d="M141.9771,291.548a51.9546,51.9546,0,1,0,51.96,51.9565A52.0153,52.0153,0,0,0,141.9771,291.548ZM135.1781,377.3l-31.3919-31.3946,14.1046-14.1047,17.2873,17.2862,30.892-30.8893,14.1046,14.1047Z"/>
		</g>
	</g>
</svg>